<svg width="984.0" height="2156.0" viewBox="0 0 984.0 2156.0" class="keymap" xmlns="http://www.w3.org/2000/svg" xmlns:xlink="http://www.w3.org/1999/xlink">
<style>/* inherit to force styles through use tags*/
svg path {
    fill: inherit;
}
/* font and background color specifications */
svg.keymap {
    font-family: SFMono-Regular,Consolas,Liberation Mono,Menlo,monospace;
    font-size: 14px;
    font-kerning: normal;
    text-rendering: optimizeLegibility;
    fill: #24292e;
}

/* default key styling */
rect.key {
    fill: #f6f8fa;
    stroke: #c9cccf;
    stroke-width: 1;
}

/* color accent for combo boxes */
rect.combo {
    fill: #cdf;
}

/* color accent for held keys */
rect.held, rect.combo.held {
    fill: #fdd;
}

/* color accent for ghost (optional) keys */
rect.ghost, rect.combo.ghost {
    fill: #ddd;
}

text {
    text-anchor: middle;
    dominant-baseline: middle;
}

/* styling for layer labels */
text.label {
    font-weight: bold;
    text-anchor: start;
    stroke: white;
    stroke-width: 2;
    paint-order: stroke;
}

/* styling for combo tap, and key hold/shifted label text */
text.combo, text.hold, text.shifted {
    font-size: 11px;
}

text.hold {
    text-anchor: middle;
    dominant-baseline: auto;
}

text.shifted {
    text-anchor: middle;
    dominant-baseline: hanging;
}

/* styling for hold/shifted label text in combo box */
text.combo.hold, text.combo.shifted {
    font-size: 8px;
}

/* lighter symbol for transparent keys */
text.trans {
    fill: #7b7e81;
}

/* styling for combo dendrons */
path.combo {
    stroke-width: 1;
    stroke: gray;
    fill: none;
}

/* Start Tabler Icons Cleanup */
/* cannot use height/width with glyphs */
.icon-tabler > path {
    fill: inherit;
    stroke: inherit;
}
/* hide tabler's default box */
.icon-tabler > path[stroke="none"][fill="none"] {
    visibility: collapse;
}
/* End Tabler Icons Cleanup */
</style>
<g class="layer-AZERTY">
<text x="30.0" y="28.0" class="label">AZERTY:</text>
<rect rx="6.0" ry="6.0" x="32.0" y="100.0" width="52.0" height="52.0" class="key"/>
<text x="58.0" y="126.0" class="tap">ESC</text>
<rect rx="6.0" ry="6.0" x="88.0" y="100.0" width="52.0" height="52.0" class="key"/>
<text x="114.0" y="126.0" class="tap">
<tspan x="114.0" dy="-0.6em">FR</tspan><tspan x="114.0" dy="1.2em">A</tspan></text>
<rect rx="6.0" ry="6.0" x="144.0" y="72.0" width="52.0" height="52.0" class="key"/>
<text x="170.0" y="98.0" class="tap">
<tspan x="170.0" dy="-0.6em">FR</tspan><tspan x="170.0" dy="1.2em">Z</tspan></text>
<rect rx="6.0" ry="6.0" x="200.0" y="58.0" width="52.0" height="52.0" class="key"/>
<text x="226.0" y="84.0" class="tap">
<tspan x="226.0" dy="-0.6em">FR</tspan><tspan x="226.0" dy="1.2em">E</tspan></text>
<rect rx="6.0" ry="6.0" x="256.0" y="72.0" width="52.0" height="52.0" class="key"/>
<text x="282.0" y="98.0" class="tap">
<tspan x="282.0" dy="-0.6em">FR</tspan><tspan x="282.0" dy="1.2em">R</tspan></text>
<rect rx="6.0" ry="6.0" x="312.0" y="86.0" width="52.0" height="52.0" class="key"/>
<text x="338.0" y="112.0" class="tap">
<tspan x="338.0" dy="-0.6em">FR</tspan><tspan x="338.0" dy="1.2em">T</tspan></text>
<rect rx="6.0" ry="6.0" x="620.0" y="86.0" width="52.0" height="52.0" class="key"/>
<text x="646.0" y="112.0" class="tap">
<tspan x="646.0" dy="-0.6em">FR</tspan><tspan x="646.0" dy="1.2em">Y</tspan></text>
<rect rx="6.0" ry="6.0" x="676.0" y="72.0" width="52.0" height="52.0" class="key"/>
<text x="702.0" y="98.0" class="tap">
<tspan x="702.0" dy="-0.6em">FR</tspan><tspan x="702.0" dy="1.2em">U</tspan></text>
<rect rx="6.0" ry="6.0" x="732.0" y="58.0" width="52.0" height="52.0" class="key"/>
<text x="758.0" y="84.0" class="tap">
<tspan x="758.0" dy="-0.6em">FR</tspan><tspan x="758.0" dy="1.2em">I</tspan></text>
<rect rx="6.0" ry="6.0" x="788.0" y="72.0" width="52.0" height="52.0" class="key"/>
<text x="814.0" y="98.0" class="tap">
<tspan x="814.0" dy="-0.6em">FR</tspan><tspan x="814.0" dy="1.2em">O</tspan></text>
<rect rx="6.0" ry="6.0" x="844.0" y="100.0" width="52.0" height="52.0" class="key"/>
<text x="870.0" y="126.0" class="tap">
<tspan x="870.0" dy="-0.6em">FR</tspan><tspan x="870.0" dy="1.2em">P</tspan></text>
<rect rx="6.0" ry="6.0" x="900.0" y="100.0" width="52.0" height="52.0" class="key"/>
<text x="926.0" y="126.0" class="tap">
<tspan x="926.0" dy="-0.6em">FR</tspan><tspan x="926.0" dy="1.2em">CIRC</tspan></text>
<rect rx="6.0" ry="6.0" x="32.0" y="156.0" width="52.0" height="52.0" class="key"/>
<text x="58.0" y="182.0" class="tap">TAB</text>
<rect rx="6.0" ry="6.0" x="88.0" y="156.0" width="52.0" height="52.0" class="key"/>
<text x="114.0" y="182.0" class="tap">
<tspan x="114.0" dy="-0.6em">FR</tspan><tspan x="114.0" dy="1.2em">Q</tspan></text>
<rect rx="6.0" ry="6.0" x="144.0" y="128.0" width="52.0" height="52.0" class="key"/>
<text x="170.0" y="154.0" class="tap">
<tspan x="170.0" dy="-1.2em">FR</tspan><tspan x="170.0" dy="1.2em">S</tspan></text>
<text x="170.0" y="178.0" class="hold">LALT</text>
<rect rx="6.0" ry="6.0" x="200.0" y="114.0" width="52.0" height="52.0" class="key"/>
<text x="226.0" y="140.0" class="tap">
<tspan x="226.0" dy="-1.2em">FR</tspan><tspan x="226.0" dy="1.2em">D</tspan></text>
<text x="226.0" y="164.0" class="hold">LSHIFT</text>
<rect rx="6.0" ry="6.0" x="256.0" y="128.0" width="52.0" height="52.0" class="key"/>
<text x="282.0" y="154.0" class="tap">
<tspan x="282.0" dy="-1.2em">FR</tspan><tspan x="282.0" dy="1.2em">F</tspan></text>
<text x="282.0" y="178.0" class="hold">LCTRL</text>
<rect rx="6.0" ry="6.0" x="312.0" y="142.0" width="52.0" height="52.0" class="key"/>
<text x="338.0" y="168.0" class="tap">
<tspan x="338.0" dy="-0.6em">FR</tspan><tspan x="338.0" dy="1.2em">G</tspan></text>
<rect rx="6.0" ry="6.0" x="620.0" y="142.0" width="52.0" height="52.0" class="key"/>
<text x="646.0" y="168.0" class="tap">
<tspan x="646.0" dy="-0.6em">FR</tspan><tspan x="646.0" dy="1.2em">H</tspan></text>
<rect rx="6.0" ry="6.0" x="676.0" y="128.0" width="52.0" height="52.0" class="key"/>
<text x="702.0" y="154.0" class="tap">
<tspan x="702.0" dy="-1.2em">FR</tspan><tspan x="702.0" dy="1.2em">J</tspan></text>
<text x="702.0" y="178.0" class="hold">RCTRL</text>
<rect rx="6.0" ry="6.0" x="732.0" y="114.0" width="52.0" height="52.0" class="key"/>
<text x="758.0" y="140.0" class="tap">
<tspan x="758.0" dy="-1.2em">FR</tspan><tspan x="758.0" dy="1.2em">K</tspan></text>
<text x="758.0" y="164.0" class="hold">RSHIFT</text>
<rect rx="6.0" ry="6.0" x="788.0" y="128.0" width="52.0" height="52.0" class="key"/>
<text x="814.0" y="154.0" class="tap">
<tspan x="814.0" dy="-1.2em">FR</tspan><tspan x="814.0" dy="1.2em">L</tspan></text>
<text x="814.0" y="178.0" class="hold">LALT</text>
<rect rx="6.0" ry="6.0" x="844.0" y="156.0" width="52.0" height="52.0" class="key"/>
<text x="870.0" y="182.0" class="tap">
<tspan x="870.0" dy="-0.6em">FR</tspan><tspan x="870.0" dy="1.2em">M</tspan></text>
<rect rx="6.0" ry="6.0" x="900.0" y="156.0" width="52.0" height="52.0" class="key"/>
<text x="926.0" y="182.0" class="tap">TAB</text>
<rect rx="6.0" ry="6.0" x="32.0" y="212.0" width="52.0" height="52.0" class="key"/>
<text x="58.0" y="238.0" class="tap" style="font-size: 88%">&amp;td_caps</text>
<rect rx="6.0" ry="6.0" x="88.0" y="212.0" width="52.0" height="52.0" class="key"/>
<text x="114.0" y="238.0" class="tap">
<tspan x="114.0" dy="-0.6em">FR</tspan><tspan x="114.0" dy="1.2em">W</tspan></text>
<rect rx="6.0" ry="6.0" x="144.0" y="184.0" width="52.0" height="52.0" class="key"/>
<text x="170.0" y="210.0" class="tap">
<tspan x="170.0" dy="-0.6em">FR</tspan><tspan x="170.0" dy="1.2em">X</tspan></text>
<rect rx="6.0" ry="6.0" x="200.0" y="170.0" width="52.0" height="52.0" class="key"/>
<text x="226.0" y="196.0" class="tap">
<tspan x="226.0" dy="-0.6em">FR</tspan><tspan x="226.0" dy="1.2em">C</tspan></text>
<rect rx="6.0" ry="6.0" x="256.0" y="184.0" width="52.0" height="52.0" class="key"/>
<text x="282.0" y="210.0" class="tap">
<tspan x="282.0" dy="-0.6em">FR</tspan><tspan x="282.0" dy="1.2em">V</tspan></text>
<rect rx="6.0" ry="6.0" x="312.0" y="198.0" width="52.0" height="52.0" class="key"/>
<text x="338.0" y="224.0" class="tap">
<tspan x="338.0" dy="-0.6em">FR</tspan><tspan x="338.0" dy="1.2em">B</tspan></text>
<rect rx="6.0" ry="6.0" x="368.0" y="226.0" width="52.0" height="52.0" class="key"/>
<rect rx="6.0" ry="6.0" x="424.0" y="240.0" width="52.0" height="52.0" class="key"/>
<text x="450.0" y="266.0" class="tap">
<tspan x="450.0" dy="-0.6em">AC</tspan><tspan x="450.0" dy="1.2em">COPY</tspan></text>
<rect rx="6.0" ry="6.0" x="508.0" y="240.0" width="52.0" height="52.0" class="key"/>
<text x="534.0" y="266.0" class="tap">
<tspan x="534.0" dy="-0.6em">AC</tspan><tspan x="534.0" dy="1.2em">PASTE</tspan></text>
<rect rx="6.0" ry="6.0" x="564.0" y="226.0" width="52.0" height="52.0" class="key"/>
<rect rx="6.0" ry="6.0" x="620.0" y="198.0" width="52.0" height="52.0" class="key"/>
<text x="646.0" y="224.0" class="tap">
<tspan x="646.0" dy="-0.6em">FR</tspan><tspan x="646.0" dy="1.2em">N</tspan></text>
<rect rx="6.0" ry="6.0" x="676.0" y="184.0" width="52.0" height="52.0" class="key"/>
<text x="702.0" y="210.0" class="tap">
<tspan x="702.0" dy="-0.6em">FR</tspan><tspan x="702.0" dy="1.2em">COMM</tspan></text>
<rect rx="6.0" ry="6.0" x="732.0" y="170.0" width="52.0" height="52.0" class="key"/>
<text x="758.0" y="196.0" class="tap">
<tspan x="758.0" dy="-0.6em">FR</tspan><tspan x="758.0" dy="1.2em">SCLN</tspan></text>
<rect rx="6.0" ry="6.0" x="788.0" y="184.0" width="52.0" height="52.0" class="key"/>
<text x="814.0" y="210.0" class="tap">
<tspan x="814.0" dy="-0.6em">FR</tspan><tspan x="814.0" dy="1.2em">COLN</tspan></text>
<rect rx="6.0" ry="6.0" x="844.0" y="212.0" width="52.0" height="52.0" class="key"/>
<text x="870.0" y="238.0" class="tap">
<tspan x="870.0" dy="-0.6em">FR</tspan><tspan x="870.0" dy="1.2em">EXLM</tspan></text>
<rect rx="6.0" ry="6.0" x="900.0" y="212.0" width="52.0" height="52.0" class="key"/>
<text x="926.0" y="238.0" class="tap">RALT</text>
<rect rx="6.0" ry="6.0" x="172.0" y="240.0" width="52.0" height="52.0" class="key"/>
<rect rx="6.0" ry="6.0" x="228.0" y="240.0" width="52.0" height="52.0" class="key"/>
<rect rx="6.0" ry="6.0" x="284.0" y="254.0" width="52.0" height="52.0" class="key"/>
<text x="310.0" y="280.0" class="tap">BSPC</text>
<text x="310.0" y="304.0" class="hold">LOWER</text>
<rect rx="6.0" ry="6.0" x="340.0" y="282.0" width="52.0" height="52.0" class="key"/>
<text x="366.0" y="308.0" class="tap">SPACE</text>
<text x="366.0" y="332.0" class="hold">NAV</text>
<text x="366.0" y="284.0" class="shifted">FR UNDS</text>
<rect rx="6.0" ry="6.0" x="396.0" y="296.0" width="52.0" height="52.0" class="key"/>
<text x="422.0" y="322.0" class="tap">DEL</text>
<rect rx="6.0" ry="6.0" x="536.0" y="296.0" width="52.0" height="52.0" class="key"/>
<text x="562.0" y="322.0" class="tap">RET</text>
<rect rx="6.0" ry="6.0" x="592.0" y="282.0" width="52.0" height="52.0" class="key"/>
<text x="618.0" y="308.0" class="tap">SPACE</text>
<text x="618.0" y="332.0" class="hold">FR</text>
<text x="618.0" y="284.0" class="shifted">FR UNDS</text>
<rect rx="6.0" ry="6.0" x="648.0" y="254.0" width="52.0" height="52.0" class="key"/>
<text x="674.0" y="280.0" class="tap">BSPC</text>
<text x="674.0" y="304.0" class="hold">UPPER</text>
<rect rx="6.0" ry="6.0" x="704.0" y="240.0" width="52.0" height="52.0" class="key"/>
<rect rx="6.0" ry="6.0" x="760.0" y="240.0" width="52.0" height="52.0" class="key"/>
</g>
<g class="layer-LOWER">
<text x="30.0" y="378.0" class="label">LOWER:</text>
<rect rx="6.0" ry="6.0" x="32.0" y="450.0" width="52.0" height="52.0" class="key"/>
<text x="58.0" y="476.0" class="tap">
<tspan x="58.0" dy="-0.6em">FR</tspan><tspan x="58.0" dy="1.2em">PND</tspan></text>
<rect rx="6.0" ry="6.0" x="88.0" y="450.0" width="52.0" height="52.0" class="key"/>
<rect rx="6.0" ry="6.0" x="144.0" y="422.0" width="52.0" height="52.0" class="key"/>
<rect rx="6.0" ry="6.0" x="200.0" y="408.0" width="52.0" height="52.0" class="key"/>
<rect rx="6.0" ry="6.0" x="256.0" y="422.0" width="52.0" height="52.0" class="key"/>
<rect rx="6.0" ry="6.0" x="312.0" y="436.0" width="52.0" height="52.0" class="key"/>
<rect rx="6.0" ry="6.0" x="620.0" y="436.0" width="52.0" height="52.0" class="key"/>
<rect rx="6.0" ry="6.0" x="676.0" y="422.0" width="52.0" height="52.0" class="key"/>
<rect rx="6.0" ry="6.0" x="732.0" y="408.0" width="52.0" height="52.0" class="key"/>
<rect rx="6.0" ry="6.0" x="788.0" y="422.0" width="52.0" height="52.0" class="key"/>
<rect rx="6.0" ry="6.0" x="844.0" y="450.0" width="52.0" height="52.0" class="key"/>
<rect rx="6.0" ry="6.0" x="900.0" y="450.0" width="52.0" height="52.0" class="key"/>
<rect rx="6.0" ry="6.0" x="32.0" y="506.0" width="52.0" height="52.0" class="key"/>
<text x="58.0" y="532.0" class="tap">
<tspan x="58.0" dy="-0.6em">FR</tspan><tspan x="58.0" dy="1.2em">EURO</tspan></text>
<rect rx="6.0" ry="6.0" x="88.0" y="506.0" width="52.0" height="52.0" class="key"/>
<rect rx="6.0" ry="6.0" x="144.0" y="478.0" width="52.0" height="52.0" class="key"/>
<rect rx="6.0" ry="6.0" x="200.0" y="464.0" width="52.0" height="52.0" class="key"/>
<rect rx="6.0" ry="6.0" x="256.0" y="478.0" width="52.0" height="52.0" class="key"/>
<rect rx="6.0" ry="6.0" x="312.0" y="492.0" width="52.0" height="52.0" class="key"/>
<rect rx="6.0" ry="6.0" x="620.0" y="492.0" width="52.0" height="52.0" class="key"/>
<rect rx="6.0" ry="6.0" x="676.0" y="478.0" width="52.0" height="52.0" class="key"/>
<rect rx="6.0" ry="6.0" x="732.0" y="464.0" width="52.0" height="52.0" class="key"/>
<rect rx="6.0" ry="6.0" x="788.0" y="478.0" width="52.0" height="52.0" class="key"/>
<rect rx="6.0" ry="6.0" x="844.0" y="506.0" width="52.0" height="52.0" class="key"/>
<rect rx="6.0" ry="6.0" x="900.0" y="506.0" width="52.0" height="52.0" class="key"/>
<rect rx="6.0" ry="6.0" x="32.0" y="562.0" width="52.0" height="52.0" class="key"/>
<text x="58.0" y="588.0" class="tap">
<tspan x="58.0" dy="-0.6em">FR</tspan><tspan x="58.0" dy="1.2em">DLR</tspan></text>
<rect rx="6.0" ry="6.0" x="88.0" y="562.0" width="52.0" height="52.0" class="key"/>
<rect rx="6.0" ry="6.0" x="144.0" y="534.0" width="52.0" height="52.0" class="key"/>
<rect rx="6.0" ry="6.0" x="200.0" y="520.0" width="52.0" height="52.0" class="key"/>
<rect rx="6.0" ry="6.0" x="256.0" y="534.0" width="52.0" height="52.0" class="key"/>
<rect rx="6.0" ry="6.0" x="312.0" y="548.0" width="52.0" height="52.0" class="key"/>
<rect rx="6.0" ry="6.0" x="368.0" y="576.0" width="52.0" height="52.0" class="trans key"/>
<text x="394.0" y="602.0" class="trans tap">▽</text>
<rect rx="6.0" ry="6.0" x="424.0" y="590.0" width="52.0" height="52.0" class="trans key"/>
<text x="450.0" y="616.0" class="trans tap">▽</text>
<rect rx="6.0" ry="6.0" x="508.0" y="590.0" width="52.0" height="52.0" class="trans key"/>
<text x="534.0" y="616.0" class="trans tap">▽</text>
<rect rx="6.0" ry="6.0" x="564.0" y="576.0" width="52.0" height="52.0" class="trans key"/>
<text x="590.0" y="602.0" class="trans tap">▽</text>
<rect rx="6.0" ry="6.0" x="620.0" y="548.0" width="52.0" height="52.0" class="key"/>
<rect rx="6.0" ry="6.0" x="676.0" y="534.0" width="52.0" height="52.0" class="key"/>
<rect rx="6.0" ry="6.0" x="732.0" y="520.0" width="52.0" height="52.0" class="key"/>
<rect rx="6.0" ry="6.0" x="788.0" y="534.0" width="52.0" height="52.0" class="key"/>
<rect rx="6.0" ry="6.0" x="844.0" y="562.0" width="52.0" height="52.0" class="key"/>
<rect rx="6.0" ry="6.0" x="900.0" y="562.0" width="52.0" height="52.0" class="key"/>
<rect rx="6.0" ry="6.0" x="172.0" y="590.0" width="52.0" height="52.0" class="trans key"/>
<text x="198.0" y="616.0" class="trans tap">▽</text>
<rect rx="6.0" ry="6.0" x="228.0" y="590.0" width="52.0" height="52.0" class="trans key"/>
<text x="254.0" y="616.0" class="trans tap">▽</text>
<rect rx="6.0" ry="6.0" x="284.0" y="604.0" width="52.0" height="52.0" class="held key"/>
<rect rx="6.0" ry="6.0" x="340.0" y="632.0" width="52.0" height="52.0" class="trans key"/>
<text x="366.0" y="658.0" class="trans tap">▽</text>
<rect rx="6.0" ry="6.0" x="396.0" y="646.0" width="52.0" height="52.0" class="trans key"/>
<text x="422.0" y="672.0" class="trans tap">▽</text>
<rect rx="6.0" ry="6.0" x="536.0" y="646.0" width="52.0" height="52.0" class="trans key"/>
<text x="562.0" y="672.0" class="trans tap">▽</text>
<rect rx="6.0" ry="6.0" x="592.0" y="632.0" width="52.0" height="52.0" class="trans key"/>
<text x="618.0" y="658.0" class="trans tap">▽</text>
<rect rx="6.0" ry="6.0" x="648.0" y="604.0" width="52.0" height="52.0" class="trans key"/>
<text x="674.0" y="630.0" class="trans tap">▽</text>
<rect rx="6.0" ry="6.0" x="704.0" y="590.0" width="52.0" height="52.0" class="trans key"/>
<text x="730.0" y="616.0" class="trans tap">▽</text>
<rect rx="6.0" ry="6.0" x="760.0" y="590.0" width="52.0" height="52.0" class="trans key"/>
<text x="786.0" y="616.0" class="trans tap">▽</text>
</g>
<g class="layer-UPPER">
<text x="30.0" y="728.0" class="label">UPPER:</text>
<rect rx="6.0" ry="6.0" x="32.0" y="800.0" width="52.0" height="52.0" class="key"/>
<rect rx="6.0" ry="6.0" x="88.0" y="800.0" width="52.0" height="52.0" class="key"/>
<rect rx="6.0" ry="6.0" x="144.0" y="772.0" width="52.0" height="52.0" class="key"/>
<rect rx="6.0" ry="6.0" x="200.0" y="758.0" width="52.0" height="52.0" class="key"/>
<rect rx="6.0" ry="6.0" x="256.0" y="772.0" width="52.0" height="52.0" class="key"/>
<rect rx="6.0" ry="6.0" x="312.0" y="786.0" width="52.0" height="52.0" class="key"/>
<rect rx="6.0" ry="6.0" x="620.0" y="786.0" width="52.0" height="52.0" class="key"/>
<rect rx="6.0" ry="6.0" x="676.0" y="772.0" width="52.0" height="52.0" class="key"/>
<rect rx="6.0" ry="6.0" x="732.0" y="758.0" width="52.0" height="52.0" class="key"/>
<rect rx="6.0" ry="6.0" x="788.0" y="772.0" width="52.0" height="52.0" class="key"/>
<rect rx="6.0" ry="6.0" x="844.0" y="800.0" width="52.0" height="52.0" class="key"/>
<rect rx="6.0" ry="6.0" x="900.0" y="800.0" width="52.0" height="52.0" class="key"/>
<rect rx="6.0" ry="6.0" x="32.0" y="856.0" width="52.0" height="52.0" class="key"/>
<rect rx="6.0" ry="6.0" x="88.0" y="856.0" width="52.0" height="52.0" class="key"/>
<rect rx="6.0" ry="6.0" x="144.0" y="828.0" width="52.0" height="52.0" class="key"/>
<rect rx="6.0" ry="6.0" x="200.0" y="814.0" width="52.0" height="52.0" class="key"/>
<rect rx="6.0" ry="6.0" x="256.0" y="828.0" width="52.0" height="52.0" class="key"/>
<rect rx="6.0" ry="6.0" x="312.0" y="842.0" width="52.0" height="52.0" class="key"/>
<rect rx="6.0" ry="6.0" x="620.0" y="842.0" width="52.0" height="52.0" class="key"/>
<rect rx="6.0" ry="6.0" x="676.0" y="828.0" width="52.0" height="52.0" class="key"/>
<rect rx="6.0" ry="6.0" x="732.0" y="814.0" width="52.0" height="52.0" class="key"/>
<rect rx="6.0" ry="6.0" x="788.0" y="828.0" width="52.0" height="52.0" class="key"/>
<rect rx="6.0" ry="6.0" x="844.0" y="856.0" width="52.0" height="52.0" class="key"/>
<rect rx="6.0" ry="6.0" x="900.0" y="856.0" width="52.0" height="52.0" class="key"/>
<rect rx="6.0" ry="6.0" x="32.0" y="912.0" width="52.0" height="52.0" class="key"/>
<rect rx="6.0" ry="6.0" x="88.0" y="912.0" width="52.0" height="52.0" class="key"/>
<rect rx="6.0" ry="6.0" x="144.0" y="884.0" width="52.0" height="52.0" class="key"/>
<rect rx="6.0" ry="6.0" x="200.0" y="870.0" width="52.0" height="52.0" class="key"/>
<rect rx="6.0" ry="6.0" x="256.0" y="884.0" width="52.0" height="52.0" class="key"/>
<rect rx="6.0" ry="6.0" x="312.0" y="898.0" width="52.0" height="52.0" class="key"/>
<rect rx="6.0" ry="6.0" x="368.0" y="926.0" width="52.0" height="52.0" class="trans key"/>
<text x="394.0" y="952.0" class="trans tap">▽</text>
<rect rx="6.0" ry="6.0" x="424.0" y="940.0" width="52.0" height="52.0" class="trans key"/>
<text x="450.0" y="966.0" class="trans tap">▽</text>
<rect rx="6.0" ry="6.0" x="508.0" y="940.0" width="52.0" height="52.0" class="trans key"/>
<text x="534.0" y="966.0" class="trans tap">▽</text>
<rect rx="6.0" ry="6.0" x="564.0" y="926.0" width="52.0" height="52.0" class="trans key"/>
<text x="590.0" y="952.0" class="trans tap">▽</text>
<rect rx="6.0" ry="6.0" x="620.0" y="898.0" width="52.0" height="52.0" class="key"/>
<rect rx="6.0" ry="6.0" x="676.0" y="884.0" width="52.0" height="52.0" class="key"/>
<rect rx="6.0" ry="6.0" x="732.0" y="870.0" width="52.0" height="52.0" class="key"/>
<rect rx="6.0" ry="6.0" x="788.0" y="884.0" width="52.0" height="52.0" class="key"/>
<rect rx="6.0" ry="6.0" x="844.0" y="912.0" width="52.0" height="52.0" class="key"/>
<rect rx="6.0" ry="6.0" x="900.0" y="912.0" width="52.0" height="52.0" class="key"/>
<rect rx="6.0" ry="6.0" x="172.0" y="940.0" width="52.0" height="52.0" class="trans key"/>
<text x="198.0" y="966.0" class="trans tap">▽</text>
<rect rx="6.0" ry="6.0" x="228.0" y="940.0" width="52.0" height="52.0" class="trans key"/>
<text x="254.0" y="966.0" class="trans tap">▽</text>
<rect rx="6.0" ry="6.0" x="284.0" y="954.0" width="52.0" height="52.0" class="trans key"/>
<text x="310.0" y="980.0" class="trans tap">▽</text>
<rect rx="6.0" ry="6.0" x="340.0" y="982.0" width="52.0" height="52.0" class="trans key"/>
<text x="366.0" y="1008.0" class="trans tap">▽</text>
<rect rx="6.0" ry="6.0" x="396.0" y="996.0" width="52.0" height="52.0" class="trans key"/>
<text x="422.0" y="1022.0" class="trans tap">▽</text>
<rect rx="6.0" ry="6.0" x="536.0" y="996.0" width="52.0" height="52.0" class="trans key"/>
<text x="562.0" y="1022.0" class="trans tap">▽</text>
<rect rx="6.0" ry="6.0" x="592.0" y="982.0" width="52.0" height="52.0" class="trans key"/>
<text x="618.0" y="1008.0" class="trans tap">▽</text>
<rect rx="6.0" ry="6.0" x="648.0" y="954.0" width="52.0" height="52.0" class="held key"/>
<rect rx="6.0" ry="6.0" x="704.0" y="940.0" width="52.0" height="52.0" class="trans key"/>
<text x="730.0" y="966.0" class="trans tap">▽</text>
<rect rx="6.0" ry="6.0" x="760.0" y="940.0" width="52.0" height="52.0" class="trans key"/>
<text x="786.0" y="966.0" class="trans tap">▽</text>
</g>
<g class="layer-FR">
<text x="30.0" y="1078.0" class="label">FR:</text>
<rect rx="6.0" ry="6.0" x="32.0" y="1150.0" width="52.0" height="52.0" class="key"/>
<rect rx="6.0" ry="6.0" x="88.0" y="1150.0" width="52.0" height="52.0" class="key"/>
<rect rx="6.0" ry="6.0" x="144.0" y="1122.0" width="52.0" height="52.0" class="key"/>
<rect rx="6.0" ry="6.0" x="200.0" y="1108.0" width="52.0" height="52.0" class="key"/>
<rect rx="6.0" ry="6.0" x="256.0" y="1122.0" width="52.0" height="52.0" class="key"/>
<rect rx="6.0" ry="6.0" x="312.0" y="1136.0" width="52.0" height="52.0" class="key"/>
<rect rx="6.0" ry="6.0" x="620.0" y="1136.0" width="52.0" height="52.0" class="key"/>
<rect rx="6.0" ry="6.0" x="676.0" y="1122.0" width="52.0" height="52.0" class="key"/>
<rect rx="6.0" ry="6.0" x="732.0" y="1108.0" width="52.0" height="52.0" class="key"/>
<rect rx="6.0" ry="6.0" x="788.0" y="1122.0" width="52.0" height="52.0" class="key"/>
<rect rx="6.0" ry="6.0" x="844.0" y="1150.0" width="52.0" height="52.0" class="key"/>
<rect rx="6.0" ry="6.0" x="900.0" y="1150.0" width="52.0" height="52.0" class="key"/>
<rect rx="6.0" ry="6.0" x="32.0" y="1206.0" width="52.0" height="52.0" class="key"/>
<rect rx="6.0" ry="6.0" x="88.0" y="1206.0" width="52.0" height="52.0" class="key"/>
<rect rx="6.0" ry="6.0" x="144.0" y="1178.0" width="52.0" height="52.0" class="key"/>
<rect rx="6.0" ry="6.0" x="200.0" y="1164.0" width="52.0" height="52.0" class="key"/>
<rect rx="6.0" ry="6.0" x="256.0" y="1178.0" width="52.0" height="52.0" class="key"/>
<rect rx="6.0" ry="6.0" x="312.0" y="1192.0" width="52.0" height="52.0" class="key"/>
<rect rx="6.0" ry="6.0" x="620.0" y="1192.0" width="52.0" height="52.0" class="key"/>
<rect rx="6.0" ry="6.0" x="676.0" y="1178.0" width="52.0" height="52.0" class="key"/>
<rect rx="6.0" ry="6.0" x="732.0" y="1164.0" width="52.0" height="52.0" class="key"/>
<rect rx="6.0" ry="6.0" x="788.0" y="1178.0" width="52.0" height="52.0" class="key"/>
<rect rx="6.0" ry="6.0" x="844.0" y="1206.0" width="52.0" height="52.0" class="key"/>
<rect rx="6.0" ry="6.0" x="900.0" y="1206.0" width="52.0" height="52.0" class="key"/>
<rect rx="6.0" ry="6.0" x="32.0" y="1262.0" width="52.0" height="52.0" class="key"/>
<rect rx="6.0" ry="6.0" x="88.0" y="1262.0" width="52.0" height="52.0" class="key"/>
<rect rx="6.0" ry="6.0" x="144.0" y="1234.0" width="52.0" height="52.0" class="key"/>
<rect rx="6.0" ry="6.0" x="200.0" y="1220.0" width="52.0" height="52.0" class="key"/>
<rect rx="6.0" ry="6.0" x="256.0" y="1234.0" width="52.0" height="52.0" class="key"/>
<rect rx="6.0" ry="6.0" x="312.0" y="1248.0" width="52.0" height="52.0" class="key"/>
<rect rx="6.0" ry="6.0" x="368.0" y="1276.0" width="52.0" height="52.0" class="trans key"/>
<text x="394.0" y="1302.0" class="trans tap">▽</text>
<rect rx="6.0" ry="6.0" x="424.0" y="1290.0" width="52.0" height="52.0" class="trans key"/>
<text x="450.0" y="1316.0" class="trans tap">▽</text>
<rect rx="6.0" ry="6.0" x="508.0" y="1290.0" width="52.0" height="52.0" class="trans key"/>
<text x="534.0" y="1316.0" class="trans tap">▽</text>
<rect rx="6.0" ry="6.0" x="564.0" y="1276.0" width="52.0" height="52.0" class="trans key"/>
<text x="590.0" y="1302.0" class="trans tap">▽</text>
<rect rx="6.0" ry="6.0" x="620.0" y="1248.0" width="52.0" height="52.0" class="key"/>
<rect rx="6.0" ry="6.0" x="676.0" y="1234.0" width="52.0" height="52.0" class="key"/>
<rect rx="6.0" ry="6.0" x="732.0" y="1220.0" width="52.0" height="52.0" class="key"/>
<rect rx="6.0" ry="6.0" x="788.0" y="1234.0" width="52.0" height="52.0" class="key"/>
<rect rx="6.0" ry="6.0" x="844.0" y="1262.0" width="52.0" height="52.0" class="key"/>
<rect rx="6.0" ry="6.0" x="900.0" y="1262.0" width="52.0" height="52.0" class="key"/>
<rect rx="6.0" ry="6.0" x="172.0" y="1290.0" width="52.0" height="52.0" class="trans key"/>
<text x="198.0" y="1316.0" class="trans tap">▽</text>
<rect rx="6.0" ry="6.0" x="228.0" y="1290.0" width="52.0" height="52.0" class="trans key"/>
<text x="254.0" y="1316.0" class="trans tap">▽</text>
<rect rx="6.0" ry="6.0" x="284.0" y="1304.0" width="52.0" height="52.0" class="trans key"/>
<text x="310.0" y="1330.0" class="trans tap">▽</text>
<rect rx="6.0" ry="6.0" x="340.0" y="1332.0" width="52.0" height="52.0" class="trans key"/>
<text x="366.0" y="1358.0" class="trans tap">▽</text>
<rect rx="6.0" ry="6.0" x="396.0" y="1346.0" width="52.0" height="52.0" class="trans key"/>
<text x="422.0" y="1372.0" class="trans tap">▽</text>
<rect rx="6.0" ry="6.0" x="536.0" y="1346.0" width="52.0" height="52.0" class="trans key"/>
<text x="562.0" y="1372.0" class="trans tap">▽</text>
<rect rx="6.0" ry="6.0" x="592.0" y="1332.0" width="52.0" height="52.0" class="held key"/>
<rect rx="6.0" ry="6.0" x="648.0" y="1304.0" width="52.0" height="52.0" class="trans key"/>
<text x="674.0" y="1330.0" class="trans tap">▽</text>
<rect rx="6.0" ry="6.0" x="704.0" y="1290.0" width="52.0" height="52.0" class="trans key"/>
<text x="730.0" y="1316.0" class="trans tap">▽</text>
<rect rx="6.0" ry="6.0" x="760.0" y="1290.0" width="52.0" height="52.0" class="trans key"/>
<text x="786.0" y="1316.0" class="trans tap">▽</text>
</g>
<g class="layer-NAV">
<text x="30.0" y="1428.0" class="label">NAV:</text>
<rect rx="6.0" ry="6.0" x="32.0" y="1500.0" width="52.0" height="52.0" class="key"/>
<rect rx="6.0" ry="6.0" x="88.0" y="1500.0" width="52.0" height="52.0" class="key"/>
<rect rx="6.0" ry="6.0" x="144.0" y="1472.0" width="52.0" height="52.0" class="key"/>
<rect rx="6.0" ry="6.0" x="200.0" y="1458.0" width="52.0" height="52.0" class="key"/>
<rect rx="6.0" ry="6.0" x="256.0" y="1472.0" width="52.0" height="52.0" class="key"/>
<rect rx="6.0" ry="6.0" x="312.0" y="1486.0" width="52.0" height="52.0" class="key"/>
<rect rx="6.0" ry="6.0" x="620.0" y="1486.0" width="52.0" height="52.0" class="key"/>
<rect rx="6.0" ry="6.0" x="676.0" y="1472.0" width="52.0" height="52.0" class="key"/>
<rect rx="6.0" ry="6.0" x="732.0" y="1458.0" width="52.0" height="52.0" class="key"/>
<rect rx="6.0" ry="6.0" x="788.0" y="1472.0" width="52.0" height="52.0" class="key"/>
<rect rx="6.0" ry="6.0" x="844.0" y="1500.0" width="52.0" height="52.0" class="key"/>
<rect rx="6.0" ry="6.0" x="900.0" y="1500.0" width="52.0" height="52.0" class="key"/>
<rect rx="6.0" ry="6.0" x="32.0" y="1556.0" width="52.0" height="52.0" class="key"/>
<rect rx="6.0" ry="6.0" x="88.0" y="1556.0" width="52.0" height="52.0" class="key"/>
<rect rx="6.0" ry="6.0" x="144.0" y="1528.0" width="52.0" height="52.0" class="key"/>
<rect rx="6.0" ry="6.0" x="200.0" y="1514.0" width="52.0" height="52.0" class="key"/>
<rect rx="6.0" ry="6.0" x="256.0" y="1528.0" width="52.0" height="52.0" class="key"/>
<rect rx="6.0" ry="6.0" x="312.0" y="1542.0" width="52.0" height="52.0" class="key"/>
<rect rx="6.0" ry="6.0" x="620.0" y="1542.0" width="52.0" height="52.0" class="key"/>
<rect rx="6.0" ry="6.0" x="676.0" y="1528.0" width="52.0" height="52.0" class="key"/>
<rect rx="6.0" ry="6.0" x="732.0" y="1514.0" width="52.0" height="52.0" class="key"/>
<rect rx="6.0" ry="6.0" x="788.0" y="1528.0" width="52.0" height="52.0" class="key"/>
<rect rx="6.0" ry="6.0" x="844.0" y="1556.0" width="52.0" height="52.0" class="key"/>
<rect rx="6.0" ry="6.0" x="900.0" y="1556.0" width="52.0" height="52.0" class="key"/>
<rect rx="6.0" ry="6.0" x="32.0" y="1612.0" width="52.0" height="52.0" class="key"/>
<rect rx="6.0" ry="6.0" x="88.0" y="1612.0" width="52.0" height="52.0" class="key"/>
<rect rx="6.0" ry="6.0" x="144.0" y="1584.0" width="52.0" height="52.0" class="key"/>
<rect rx="6.0" ry="6.0" x="200.0" y="1570.0" width="52.0" height="52.0" class="key"/>
<rect rx="6.0" ry="6.0" x="256.0" y="1584.0" width="52.0" height="52.0" class="key"/>
<rect rx="6.0" ry="6.0" x="312.0" y="1598.0" width="52.0" height="52.0" class="key"/>
<rect rx="6.0" ry="6.0" x="368.0" y="1626.0" width="52.0" height="52.0" class="trans key"/>
<text x="394.0" y="1652.0" class="trans tap">▽</text>
<rect rx="6.0" ry="6.0" x="424.0" y="1640.0" width="52.0" height="52.0" class="trans key"/>
<text x="450.0" y="1666.0" class="trans tap">▽</text>
<rect rx="6.0" ry="6.0" x="508.0" y="1640.0" width="52.0" height="52.0" class="trans key"/>
<text x="534.0" y="1666.0" class="trans tap">▽</text>
<rect rx="6.0" ry="6.0" x="564.0" y="1626.0" width="52.0" height="52.0" class="trans key"/>
<text x="590.0" y="1652.0" class="trans tap">▽</text>
<rect rx="6.0" ry="6.0" x="620.0" y="1598.0" width="52.0" height="52.0" class="key"/>
<rect rx="6.0" ry="6.0" x="676.0" y="1584.0" width="52.0" height="52.0" class="key"/>
<rect rx="6.0" ry="6.0" x="732.0" y="1570.0" width="52.0" height="52.0" class="key"/>
<rect rx="6.0" ry="6.0" x="788.0" y="1584.0" width="52.0" height="52.0" class="key"/>
<rect rx="6.0" ry="6.0" x="844.0" y="1612.0" width="52.0" height="52.0" class="key"/>
<rect rx="6.0" ry="6.0" x="900.0" y="1612.0" width="52.0" height="52.0" class="key"/>
<rect rx="6.0" ry="6.0" x="172.0" y="1640.0" width="52.0" height="52.0" class="trans key"/>
<text x="198.0" y="1666.0" class="trans tap">▽</text>
<rect rx="6.0" ry="6.0" x="228.0" y="1640.0" width="52.0" height="52.0" class="trans key"/>
<text x="254.0" y="1666.0" class="trans tap">▽</text>
<rect rx="6.0" ry="6.0" x="284.0" y="1654.0" width="52.0" height="52.0" class="trans key"/>
<text x="310.0" y="1680.0" class="trans tap">▽</text>
<rect rx="6.0" ry="6.0" x="340.0" y="1682.0" width="52.0" height="52.0" class="held key"/>
<rect rx="6.0" ry="6.0" x="396.0" y="1696.0" width="52.0" height="52.0" class="trans key"/>
<text x="422.0" y="1722.0" class="trans tap">▽</text>
<rect rx="6.0" ry="6.0" x="536.0" y="1696.0" width="52.0" height="52.0" class="trans key"/>
<text x="562.0" y="1722.0" class="trans tap">▽</text>
<rect rx="6.0" ry="6.0" x="592.0" y="1682.0" width="52.0" height="52.0" class="trans key"/>
<text x="618.0" y="1708.0" class="trans tap">▽</text>
<rect rx="6.0" ry="6.0" x="648.0" y="1654.0" width="52.0" height="52.0" class="trans key"/>
<text x="674.0" y="1680.0" class="trans tap">▽</text>
<rect rx="6.0" ry="6.0" x="704.0" y="1640.0" width="52.0" height="52.0" class="trans key"/>
<text x="730.0" y="1666.0" class="trans tap">▽</text>
<rect rx="6.0" ry="6.0" x="760.0" y="1640.0" width="52.0" height="52.0" class="trans key"/>
<text x="786.0" y="1666.0" class="trans tap">▽</text>
</g>
<g class="layer-KEYPAD">
<text x="30.0" y="1778.0" class="label">KEYPAD:</text>
<rect rx="6.0" ry="6.0" x="32.0" y="1850.0" width="52.0" height="52.0" class="key"/>
<rect rx="6.0" ry="6.0" x="88.0" y="1850.0" width="52.0" height="52.0" class="key"/>
<rect rx="6.0" ry="6.0" x="144.0" y="1822.0" width="52.0" height="52.0" class="key"/>
<rect rx="6.0" ry="6.0" x="200.0" y="1808.0" width="52.0" height="52.0" class="key"/>
<rect rx="6.0" ry="6.0" x="256.0" y="1822.0" width="52.0" height="52.0" class="key"/>
<rect rx="6.0" ry="6.0" x="312.0" y="1836.0" width="52.0" height="52.0" class="key"/>
<rect rx="6.0" ry="6.0" x="620.0" y="1836.0" width="52.0" height="52.0" class="key"/>
<rect rx="6.0" ry="6.0" x="676.0" y="1822.0" width="52.0" height="52.0" class="key"/>
<rect rx="6.0" ry="6.0" x="732.0" y="1808.0" width="52.0" height="52.0" class="key"/>
<rect rx="6.0" ry="6.0" x="788.0" y="1822.0" width="52.0" height="52.0" class="key"/>
<rect rx="6.0" ry="6.0" x="844.0" y="1850.0" width="52.0" height="52.0" class="key"/>
<rect rx="6.0" ry="6.0" x="900.0" y="1850.0" width="52.0" height="52.0" class="key"/>
<rect rx="6.0" ry="6.0" x="32.0" y="1906.0" width="52.0" height="52.0" class="key"/>
<rect rx="6.0" ry="6.0" x="88.0" y="1906.0" width="52.0" height="52.0" class="key"/>
<rect rx="6.0" ry="6.0" x="144.0" y="1878.0" width="52.0" height="52.0" class="key"/>
<rect rx="6.0" ry="6.0" x="200.0" y="1864.0" width="52.0" height="52.0" class="key"/>
<rect rx="6.0" ry="6.0" x="256.0" y="1878.0" width="52.0" height="52.0" class="key"/>
<rect rx="6.0" ry="6.0" x="312.0" y="1892.0" width="52.0" height="52.0" class="key"/>
<rect rx="6.0" ry="6.0" x="620.0" y="1892.0" width="52.0" height="52.0" class="key"/>
<rect rx="6.0" ry="6.0" x="676.0" y="1878.0" width="52.0" height="52.0" class="key"/>
<rect rx="6.0" ry="6.0" x="732.0" y="1864.0" width="52.0" height="52.0" class="key"/>
<rect rx="6.0" ry="6.0" x="788.0" y="1878.0" width="52.0" height="52.0" class="key"/>
<rect rx="6.0" ry="6.0" x="844.0" y="1906.0" width="52.0" height="52.0" class="key"/>
<rect rx="6.0" ry="6.0" x="900.0" y="1906.0" width="52.0" height="52.0" class="key"/>
<rect rx="6.0" ry="6.0" x="32.0" y="1962.0" width="52.0" height="52.0" class="key"/>
<rect rx="6.0" ry="6.0" x="88.0" y="1962.0" width="52.0" height="52.0" class="key"/>
<rect rx="6.0" ry="6.0" x="144.0" y="1934.0" width="52.0" height="52.0" class="key"/>
<rect rx="6.0" ry="6.0" x="200.0" y="1920.0" width="52.0" height="52.0" class="key"/>
<rect rx="6.0" ry="6.0" x="256.0" y="1934.0" width="52.0" height="52.0" class="key"/>
<rect rx="6.0" ry="6.0" x="312.0" y="1948.0" width="52.0" height="52.0" class="key"/>
<rect rx="6.0" ry="6.0" x="368.0" y="1976.0" width="52.0" height="52.0" class="trans key"/>
<text x="394.0" y="2002.0" class="trans tap">▽</text>
<rect rx="6.0" ry="6.0" x="424.0" y="1990.0" width="52.0" height="52.0" class="trans key"/>
<text x="450.0" y="2016.0" class="trans tap">▽</text>
<rect rx="6.0" ry="6.0" x="508.0" y="1990.0" width="52.0" height="52.0" class="trans key"/>
<text x="534.0" y="2016.0" class="trans tap">▽</text>
<rect rx="6.0" ry="6.0" x="564.0" y="1976.0" width="52.0" height="52.0" class="trans key"/>
<text x="590.0" y="2002.0" class="trans tap">▽</text>
<rect rx="6.0" ry="6.0" x="620.0" y="1948.0" width="52.0" height="52.0" class="key"/>
<rect rx="6.0" ry="6.0" x="676.0" y="1934.0" width="52.0" height="52.0" class="key"/>
<rect rx="6.0" ry="6.0" x="732.0" y="1920.0" width="52.0" height="52.0" class="key"/>
<rect rx="6.0" ry="6.0" x="788.0" y="1934.0" width="52.0" height="52.0" class="key"/>
<rect rx="6.0" ry="6.0" x="844.0" y="1962.0" width="52.0" height="52.0" class="key"/>
<rect rx="6.0" ry="6.0" x="900.0" y="1962.0" width="52.0" height="52.0" class="key"/>
<rect rx="6.0" ry="6.0" x="172.0" y="1990.0" width="52.0" height="52.0" class="trans key"/>
<text x="198.0" y="2016.0" class="trans tap">▽</text>
<rect rx="6.0" ry="6.0" x="228.0" y="1990.0" width="52.0" height="52.0" class="trans key"/>
<text x="254.0" y="2016.0" class="trans tap">▽</text>
<rect rx="6.0" ry="6.0" x="284.0" y="2004.0" width="52.0" height="52.0" class="trans key"/>
<text x="310.0" y="2030.0" class="trans tap">▽</text>
<rect rx="6.0" ry="6.0" x="340.0" y="2032.0" width="52.0" height="52.0" class="trans key"/>
<text x="366.0" y="2058.0" class="trans tap">▽</text>
<rect rx="6.0" ry="6.0" x="396.0" y="2046.0" width="52.0" height="52.0" class="trans key"/>
<text x="422.0" y="2072.0" class="trans tap">▽</text>
<rect rx="6.0" ry="6.0" x="536.0" y="2046.0" width="52.0" height="52.0" class="trans key"/>
<text x="562.0" y="2072.0" class="trans tap">▽</text>
<rect rx="6.0" ry="6.0" x="592.0" y="2032.0" width="52.0" height="52.0" class="trans key"/>
<text x="618.0" y="2058.0" class="trans tap">▽</text>
<rect rx="6.0" ry="6.0" x="648.0" y="2004.0" width="52.0" height="52.0" class="trans key"/>
<text x="674.0" y="2030.0" class="trans tap">▽</text>
<rect rx="6.0" ry="6.0" x="704.0" y="1990.0" width="52.0" height="52.0" class="trans key"/>
<text x="730.0" y="2016.0" class="trans tap">▽</text>
<rect rx="6.0" ry="6.0" x="760.0" y="1990.0" width="52.0" height="52.0" class="trans key"/>
<text x="786.0" y="2016.0" class="trans tap">▽</text>
</g>
</svg>
